<svg width="83" height="83" viewBox="0 0 83 83" fill="#1A2432" xmlns="http://www.w3.org/2000/svg">
<path d="M41.8325 56.7767C43.9247 59.915 46.7267 62.4928 50.0518 64.2488L41.8325 72.4681L33.6132 64.2488C36.9383 62.4928 39.7777 59.915 41.8325 56.7767ZM60.5127 38.8437C58.531 38.8437 56.6305 39.6309 55.2292 41.0322C53.8279 42.4335 53.0407 44.3341 53.0407 46.3158C53.0407 48.2975 53.8279 50.1981 55.2292 51.5993C56.6305 53.0006 58.531 53.7879 60.5127 53.7879C62.4945 53.7879 64.395 53.0006 65.7963 51.5993C67.1976 50.1981 67.9848 48.2975 67.9848 46.3158C67.9848 44.3341 67.1976 42.4335 65.7963 41.0322C64.395 39.6309 62.4945 38.8437 60.5127 38.8437ZM23.1523 38.8437C21.1706 38.8437 19.27 39.6309 17.8687 41.0322C16.4675 42.4335 15.6802 44.3341 15.6802 46.3158C15.6802 48.2975 16.4675 50.1981 17.8687 51.5993C19.27 53.0006 21.1706 53.7879 23.1523 53.7879C25.134 53.7879 27.0346 53.0006 28.4359 51.5993C29.8372 50.1981 30.6244 48.2975 30.6244 46.3158C30.6244 44.3341 29.8372 42.4335 28.4359 41.0322C27.0346 39.6309 25.134 38.8437 23.1523 38.8437ZM60.5127 29.5036C64.4762 29.5036 68.2773 31.078 71.0799 33.8806C73.8824 36.6832 75.4569 40.4843 75.4569 44.4478C75.4569 48.4112 73.8824 52.2123 71.0799 55.0149C68.2773 57.8175 64.4762 59.3919 60.5127 59.3919C56.5493 59.3919 52.7482 57.8175 49.9456 55.0149C47.143 52.2123 45.5686 48.4112 45.5686 44.4478C45.5686 40.4843 47.143 36.6832 49.9456 33.8806C52.7482 31.078 56.5493 29.5036 60.5127 29.5036ZM23.1523 29.5036C27.1157 29.5036 30.9169 31.078 33.7194 33.8806C36.522 36.6832 38.0965 40.4843 38.0965 44.4478C38.0965 48.4112 36.522 52.2123 33.7194 55.0149C30.9169 57.8175 27.1157 59.3919 23.1523 59.3919C19.1889 59.3919 15.3878 57.8175 12.5852 55.0149C9.7826 52.2123 8.20813 48.4112 8.20813 44.4478C8.20813 40.4843 9.7826 36.6832 12.5852 33.8806C15.3878 31.078 19.1889 29.5036 23.1523 29.5036ZM5.36874 0.736042C11.9442 14.5594 7.1994 24.8709 2.79087 35.1076C1.44589 38.0965 0.736044 41.1974 0.736044 44.4478C0.736044 50.3929 3.09775 56.0946 7.30161 60.2984C11.5055 64.5023 17.2071 66.864 23.1523 66.864C23.9369 66.8267 24.7214 66.7893 25.506 66.6772L36.5647 77.7359L41.8325 82.929L47.1003 77.7359L58.159 66.6772C58.9436 66.7893 59.7282 66.8267 60.5127 66.864C66.4579 66.864 72.1596 64.5023 76.3634 60.2984C80.5673 56.0946 82.929 50.3929 82.929 44.4478C82.929 41.1974 82.2192 38.0965 80.8742 35.1076C76.4657 24.8709 71.7209 14.5594 78.2963 0.736042C68.4332 8.43229 54.3856 14.522 41.8325 14.5594C29.2794 14.522 15.2319 8.43229 5.36874 0.736042Z"/>
</svg>
