<svg width="340" height="90" viewBox="0 0 340 90" fill="#1A2432" xmlns="http://www.w3.org/2000/svg">
<path d="M44.8325 59.7767C46.9247 62.915 49.7267 65.4928 53.0518 67.2488L44.8325 75.4681L36.6132 67.2488C39.9383 65.4928 42.7777 62.915 44.8325 59.7767ZM63.5128 41.8437C61.531 41.8437 59.6305 42.6309 58.2292 44.0322C56.8279 45.4335 56.0407 47.3341 56.0407 49.3158C56.0407 51.2975 56.8279 53.1981 58.2292 54.5993C59.6305 56.0006 61.531 56.7879 63.5128 56.7879C65.4945 56.7879 67.395 56.0006 68.7963 54.5993C70.1976 53.1981 70.9848 51.2975 70.9848 49.3158C70.9848 47.3341 70.1976 45.4335 68.7963 44.0322C67.395 42.6309 65.4945 41.8437 63.5128 41.8437ZM26.1523 41.8437C24.1706 41.8437 22.27 42.6309 20.8688 44.0322C19.4675 45.4335 18.6802 47.3341 18.6802 49.3158C18.6802 51.2975 19.4675 53.1981 20.8688 54.5993C22.27 56.0006 24.1706 56.7879 26.1523 56.7879C28.134 56.7879 30.0346 56.0006 31.4359 54.5993C32.8372 53.1981 33.6244 51.2975 33.6244 49.3158C33.6244 47.3341 32.8372 45.4335 31.4359 44.0322C30.0346 42.6309 28.134 41.8437 26.1523 41.8437ZM63.5128 32.5036C67.4762 32.5036 71.2773 34.078 74.0799 36.8806C76.8825 39.6832 78.4569 43.4843 78.4569 47.4478C78.4569 51.4112 76.8825 55.2123 74.0799 58.0149C71.2773 60.8175 67.4762 62.3919 63.5128 62.3919C59.5493 62.3919 55.7482 60.8175 52.9456 58.0149C50.143 55.2123 48.5686 51.4112 48.5686 47.4478C48.5686 43.4843 50.143 39.6832 52.9456 36.8806C55.7482 34.078 59.5493 32.5036 63.5128 32.5036ZM26.1523 32.5036C30.1158 32.5036 33.9169 34.078 36.7194 36.8806C39.522 39.6832 41.0965 43.4843 41.0965 47.4478C41.0965 51.4112 39.522 55.2123 36.7194 58.0149C33.9169 60.8175 30.1158 62.3919 26.1523 62.3919C22.1889 62.3919 18.3878 60.8175 15.5852 58.0149C12.7826 55.2123 11.2081 51.4112 11.2081 47.4478C11.2081 43.4843 12.7826 39.6832 15.5852 36.8806C18.3878 34.078 22.1889 32.5036 26.1523 32.5036ZM8.36875 3.73604C14.9442 17.5594 10.1994 27.8709 5.79088 38.1076C4.4459 41.0965 3.73605 44.1974 3.73605 47.4478C3.73605 53.3929 6.09776 59.0946 10.3016 63.2984C14.5055 67.5023 20.2072 69.864 26.1523 69.864C26.9369 69.8267 27.7215 69.7893 28.506 69.6772L39.5647 80.7359L44.8325 85.929L50.1004 80.7359L61.159 69.6772C61.9436 69.7893 62.7282 69.8267 63.5128 69.864C69.4579 69.864 75.1596 67.5023 79.3634 63.2984C83.5673 59.0946 85.929 53.3929 85.929 47.4478C85.929 44.1974 85.2192 41.0965 83.8742 38.1076C79.4657 27.8709 74.7209 17.5594 81.2963 3.73604C71.4332 11.4323 57.3856 17.522 44.8325 17.5594C32.2794 17.522 18.2319 11.4323 8.36875 3.73604Z"/>
<path d="M131.289 37.8086C130.661 36.7733 129.792 35.9783 128.683 35.4237C127.61 34.8691 126.335 34.5917 124.856 34.5917C122.12 34.5917 119.957 35.4792 118.367 37.254C116.814 39.0288 116.037 41.4137 116.037 44.4087C116.037 47.7734 116.869 50.3432 118.533 52.118C120.234 53.8559 122.693 54.7248 125.91 54.7248C129.718 54.7248 132.436 53.0054 134.063 49.5667H123.136V41.7465H143.436V52.2844C142.585 54.355 141.328 56.2962 139.664 58.108C138.037 59.9198 135.967 61.4173 133.452 62.6005C130.938 63.7468 128.073 64.3199 124.856 64.3199C120.936 64.3199 117.461 63.4879 114.429 61.824C111.434 60.1232 109.104 57.7752 107.44 54.7803C105.813 51.7483 105 48.2911 105 44.4087C105 40.5633 105.813 37.143 107.44 34.148C109.104 31.1161 111.434 28.7681 114.429 27.1043C117.424 25.4034 120.881 24.553 124.8 24.553C129.718 24.553 133.785 25.7362 137.002 28.1026C140.219 30.469 142.216 33.7043 142.992 37.8086H131.289Z"/>
<path d="M162.783 64.4308C159.677 64.4308 156.886 63.7837 154.408 62.4896C151.968 61.1955 150.045 59.3467 148.64 56.9433C147.235 54.5399 146.533 51.7113 146.533 48.4575C146.533 45.2406 147.235 42.4305 148.64 40.0271C150.082 37.6237 152.023 35.775 154.464 34.4808C156.941 33.1867 159.733 32.5396 162.839 32.5396C165.945 32.5396 168.718 33.1867 171.158 34.4808C173.636 35.775 175.577 37.6237 176.982 40.0271C178.424 42.4305 179.145 45.2406 179.145 48.4575C179.145 51.6743 178.424 54.5029 176.982 56.9433C175.577 59.3467 173.636 61.1955 171.158 62.4896C168.681 63.7837 165.889 64.4308 162.783 64.4308ZM162.783 55.0021C164.299 55.0021 165.556 54.4475 166.555 53.3382C167.59 52.192 168.108 50.5651 168.108 48.4575C168.108 46.3499 167.59 44.7415 166.555 43.6322C165.556 42.5229 164.318 41.9683 162.839 41.9683C161.36 41.9683 160.121 42.5229 159.123 43.6322C158.124 44.7415 157.625 46.3499 157.625 48.4575C157.625 50.602 158.106 52.229 159.067 53.3382C160.029 54.4475 161.267 55.0021 162.783 55.0021Z"/>
<path d="M197.322 64.4308C194.734 64.4308 192.405 63.9871 190.334 63.0997C188.263 62.1753 186.637 60.8812 185.453 59.2173C184.27 57.5534 183.678 55.6122 183.678 53.3937H190.445C190.593 55.0576 191.24 56.4257 192.386 57.4979C193.569 58.5702 195.215 59.1064 197.322 59.1064C199.504 59.1064 201.205 58.5887 202.425 57.5534C203.645 56.4811 204.255 55.113 204.255 53.4491C204.255 52.155 203.867 51.1012 203.09 50.2878C202.351 49.4743 201.408 48.8457 200.262 48.402C199.153 47.9583 197.6 47.4776 195.603 46.96C193.089 46.2944 191.037 45.6289 189.447 44.9633C187.894 44.2608 186.563 43.1885 185.453 41.7465C184.344 40.3044 183.789 38.3817 183.789 35.9783C183.789 33.7598 184.344 31.8186 185.453 30.1547C186.563 28.4908 188.116 27.2152 190.112 26.3278C192.109 25.4404 194.42 24.9967 197.045 24.9967C200.78 24.9967 203.83 25.9395 206.196 27.8253C208.6 29.674 209.931 32.2253 210.19 35.4792H203.201C203.09 34.0741 202.425 32.8724 201.205 31.8741C199.985 30.8757 198.376 30.3766 196.379 30.3766C194.568 30.3766 193.089 30.8388 191.942 31.7631C190.796 32.6875 190.223 34.0186 190.223 35.7565C190.223 36.9397 190.574 37.9195 191.277 38.696C192.016 39.4355 192.941 40.0271 194.05 40.4708C195.159 40.9145 196.675 41.3952 198.598 41.9129C201.149 42.6154 203.22 43.3179 204.81 44.0204C206.437 44.723 207.805 45.8137 208.914 47.2928C210.06 48.7348 210.633 50.676 210.633 53.1164C210.633 55.076 210.097 56.9248 209.025 58.6627C207.99 60.4005 206.455 61.8056 204.422 62.8778C202.425 63.9131 200.059 64.4308 197.322 64.4308Z"/>
<path d="M225.471 38.6405V55.5567C225.471 56.703 225.729 57.5349 226.247 58.0526C226.802 58.5332 227.726 58.7736 229.02 58.7736H232.903V64.0426H227.911C225.064 64.0426 222.882 63.377 221.366 62.0459C219.85 60.7148 219.092 58.5517 219.092 55.5567V38.6405H215.487V33.4825H219.092V25.8841H225.471V33.4825H232.903V38.6405H225.471Z"/>
<path d="M266.406 33.4825V64.0426H260.083V60.4375C259.085 61.6946 257.772 62.693 256.146 63.4325C254.556 64.135 252.855 64.4863 251.043 64.4863C248.64 64.4863 246.477 63.9871 244.554 62.9888C242.668 61.9904 241.171 60.5114 240.061 58.5517C238.989 56.592 238.453 54.2256 238.453 51.4525V33.4825H244.72V50.5096C244.72 53.2458 245.404 55.3534 246.772 56.8324C248.14 58.2744 250.008 58.9954 252.374 58.9954C254.74 58.9954 256.608 58.2744 257.976 56.8324C259.381 55.3534 260.083 53.2458 260.083 50.5096V33.4825H266.406Z"/>
<path d="M272.641 48.6239C272.641 45.5549 273.27 42.8372 274.527 40.4708C275.821 38.1044 277.559 36.2741 279.74 34.98C281.959 33.6489 284.418 32.9833 287.117 32.9833C289.113 32.9833 291.073 33.427 292.996 34.3144C294.956 35.1649 296.509 36.3111 297.655 37.7531V23H304.033V64.0426H297.655V59.4391C296.619 60.9181 295.177 62.1383 293.329 63.0997C291.517 64.061 289.428 64.5417 287.061 64.5417C284.399 64.5417 281.959 63.8762 279.74 62.5451C277.559 61.177 275.821 59.2912 274.527 56.8878C273.27 54.4475 272.641 51.6928 272.641 48.6239ZM297.655 48.7348C297.655 46.6272 297.211 44.7969 296.324 43.244C295.473 41.691 294.345 40.5078 292.94 39.6943C291.535 38.8809 290.019 38.4742 288.392 38.4742C286.766 38.4742 285.25 38.8809 283.845 39.6943C282.439 40.4708 281.293 41.6355 280.406 43.1885C279.555 44.7045 279.13 46.5163 279.13 48.6239C279.13 50.7315 279.555 52.5802 280.406 54.1702C281.293 55.7601 282.439 56.9803 283.845 57.8307C285.287 58.6442 286.803 59.0509 288.392 59.0509C290.019 59.0509 291.535 58.6442 292.94 57.8307C294.345 57.0173 295.473 55.834 296.324 54.2811C297.211 52.6911 297.655 50.8424 297.655 48.7348Z"/>
<path d="M339.847 33.4825L321.101 78.4075H314.556L320.768 63.5434L308.733 33.4825H315.776L324.373 56.7769L333.303 33.4825H339.847Z"/>
</svg>
